<?xml version="1.0" encoding="utf-8"?>
<!-- Generator: Adobe Illustrator 16.2.0, SVG Export Plug-In . SVG Version: 6.00 Build 0)  -->
<!DOCTYPE svg PUBLIC "-//W3C//DTD SVG 1.1//EN" "http://www.w3.org/Graphics/SVG/1.1/DTD/svg11.dtd">
<svg version="1.1" id="Layer_2" xmlns="http://www.w3.org/2000/svg" xmlns:xlink="http://www.w3.org/1999/xlink" x="0px" y="0px"
	 width="32px" height="32px" viewBox="0 0 32 32" enable-background="new 0 0 32 32" xml:space="preserve">
<path d="M30.993,20.078c0-0.001,0-0.001,0-0.002v-8.12h-0.005c0.006-0.402-0.139-0.806-0.444-1.112L16.935,1.776
	c-0.55-0.421-1.322-0.42-1.874,0.003L1.488,10.851l-0.214,0.177c-0.255,0.259-0.378,0.591-0.413,0.929h-0.03v0.156
	c0,0,0,0.001,0,0.001v8.145c0,0.001,0,0.001,0,0.001v0.116h0.022c0.028,0.352,0.158,0.697,0.426,0.965l13.609,9.063
	c0.55,0.422,1.322,0.42,1.874-0.003l13.574-9.067l0.214-0.176c0.275-0.278,0.408-0.638,0.428-1.001h0.015V20.078z M28.493,18.331
	l-3.284-2.194l3.284-2.197V18.331z M17.25,5.27l9.685,6.43l-4.183,2.795l-5.502-3.677V5.27z M14.75,5.278v5.544l-5.691,3.814
	L4.89,11.868L14.75,5.278z M3.332,14.081l3.286,2.192l-3.286,2.203V14.081z M14.75,27.028l-9.692-6.424l4.021-2.688l5.67,3.783
	V27.028z M15.822,19.127l-4.291-2.85l4.474-2.991l4.291,2.85L15.822,19.127z M17.25,26.785v-5.322l5.512-3.688l4.006,2.661
	L17.25,26.785z"/>
</svg>
