<?xml version="1.0" encoding="utf-8"?>
<!-- Generator: Adobe Illustrator 16.2.0, SVG Export Plug-In . SVG Version: 6.00 Build 0)  -->
<!DOCTYPE svg PUBLIC "-//W3C//DTD SVG 1.1//EN" "http://www.w3.org/Graphics/SVG/1.1/DTD/svg11.dtd">
<svg version="1.1" id="Layer_1" xmlns="http://www.w3.org/2000/svg" xmlns:xlink="http://www.w3.org/1999/xlink" x="0px" y="0px"
	 width="22.488px" height="22.311px" viewBox="0 0 22.488 22.311" enable-background="new 0 0 22.488 22.311" xml:space="preserve">
<g id="Codekit">
	<path fill="#ED8318" d="M22.158,2.311c-0.088-1.005-1.002-1.91-2.02-2.002c-5.948-0.412-11.841-0.411-17.79,0
		C1.332,0.401,0.418,1.306,0.331,2.311C-0.11,8.229-0.11,14.08,0.331,20c0.087,1.004,1.001,1.908,2.02,2
		c5.948,0.412,11.841,0.412,17.79,0c1.018-0.092,1.932-0.996,2.02-2C22.599,14.08,22.599,8.229,22.158,2.311z M8.25,16.691
		l-5.536-5.537L8.25,5.619l1.365,1.379L5.64,10.973l4.145,4.171L8.25,16.691z M14.239,16.691l-1.53-1.547l4.141-4.171l-3.973-3.976
		l1.362-1.379l5.535,5.536L14.239,16.691z"/>
</g>
<g id="Layer_1_1_">
</g>
</svg>
