<?xml version="1.0" encoding="utf-8"?>
<!-- Generator: Adobe Illustrator 16.2.0, SVG Export Plug-In . SVG Version: 6.00 Build 0)  -->
<!DOCTYPE svg PUBLIC "-//W3C//DTD SVG 1.1//EN" "http://www.w3.org/Graphics/SVG/1.1/DTD/svg11.dtd">
<svg version="1.1" id="color-wheel" xmlns="http://www.w3.org/2000/svg" xmlns:xlink="http://www.w3.org/1999/xlink" x="0px"
	 y="0px" width="44.952px" height="44.952px" viewBox="0 0 44.952 44.952" enable-background="new 0 0 44.952 44.952"
	 xml:space="preserve">
<path fill="#00AF00" d="M21.863,44.952v-9.027c-2.007-0.09-3.898-0.621-5.583-1.494l-4.519,7.825
	C14.778,43.893,18.213,44.854,21.863,44.952z"/>
<path fill="#0000A8" d="M0,21.863h9.027c0.09-2.007,0.621-3.897,1.495-5.582l-7.826-4.52C1.059,14.778,0.098,18.212,0,21.863z"/>
<path fill="#0062B8" d="M10.522,28.669c-0.875-1.685-1.405-3.575-1.495-5.583H0c0.098,3.65,1.058,7.084,2.695,10.101L10.522,28.669z
	"/>
<path fill="#8AC900" d="M28.67,34.429c-1.686,0.875-3.576,1.406-5.583,1.495v9.027c3.65-0.098,7.084-1.058,10.1-2.695L28.67,34.429z
	"/>
<path fill="#C7007C" d="M16.282,10.522c1.685-0.875,3.576-1.405,5.583-1.495L21.866,0c-3.65,0.098-7.085,1.057-10.102,2.695
	L16.282,10.522z"/>
<path fill="#FF0000" d="M23.09,0l0,9.027c2.007,0.09,3.897,0.621,5.582,1.496l4.519-7.827C30.174,1.059,26.74,0.099,23.09,0z"/>
<path fill="#00A3C9" d="M15.221,33.816c-1.64-1.051-3.035-2.447-4.086-4.087L3.31,34.247c1.85,3.007,4.387,5.544,7.394,7.394
	L15.221,33.816z"/>
<path fill="#FFC600" d="M44.952,23.088h-9.027c-0.09,2.007-0.621,3.898-1.495,5.583l7.826,4.519
	C43.893,30.173,44.854,26.739,44.952,23.088z"/>
<path fill="#6400A8" d="M11.136,15.221c1.051-1.64,2.447-3.035,4.086-4.086L10.706,3.31C7.7,5.16,5.162,7.697,3.312,10.703
	L11.136,15.221z"/>
<path fill="#FFFF00" d="M33.816,29.73c-1.051,1.64-2.447,3.035-4.087,4.086l4.518,7.825c3.007-1.851,5.544-4.388,7.394-7.393
	L33.816,29.73z"/>
<path fill="#FF9500" d="M34.43,16.282c0.874,1.685,1.404,3.576,1.495,5.583l9.026,0c-0.098-3.65-1.058-7.085-2.695-10.102
	L34.43,16.282z"/>
<path fill="#FF6600" d="M29.731,11.136c1.639,1.051,3.034,2.447,4.086,4.086l7.825-4.518c-1.851-3.006-4.388-5.542-7.394-7.393
	L29.731,11.136z"/>
</svg>
