<?xml version="1.0" encoding="iso-8859-1"?>
<!-- Generator: Adobe Illustrator 16.2.0, SVG Export Plug-In . SVG Version: 6.00 Build 0)  -->
<!DOCTYPE svg PUBLIC "-//W3C//DTD SVG 1.1//EN" "http://www.w3.org/Graphics/SVG/1.1/DTD/svg11.dtd">
<svg version="1.1" xmlns="http://www.w3.org/2000/svg" xmlns:xlink="http://www.w3.org/1999/xlink" x="0px" y="0px"
	 width="21.696px" height="20.895px" viewBox="0 0 21.696 20.895" style="enable-background:new 0 0 21.696 20.895;"
	 xml:space="preserve">
<g id="jQuery">
	<g>
		<path style="fill:#0669AC;" d="M1.38,4.91c-1.922,2.76-1.686,6.351-0.215,9.278c0.033,0.072,0.071,0.14,0.106,0.209
			c0.021,0.045,0.045,0.089,0.069,0.134c0.012,0.024,0.029,0.052,0.042,0.075c0.023,0.048,0.049,0.092,0.074,0.137
			c0.048,0.08,0.095,0.161,0.142,0.241c0.028,0.042,0.052,0.088,0.083,0.131c0.05,0.085,0.108,0.169,0.161,0.255
			c0.022,0.035,0.044,0.07,0.071,0.106c0.076,0.113,0.15,0.228,0.233,0.341c0,0.003,0.003,0.006,0.006,0.007
			c0.014,0.019,0.027,0.038,0.04,0.054c0.071,0.097,0.142,0.192,0.216,0.285c0.024,0.034,0.054,0.068,0.079,0.104
			c0.068,0.082,0.134,0.163,0.2,0.245c0.024,0.028,0.05,0.057,0.077,0.089c0.089,0.106,0.182,0.212,0.276,0.316
			c0,0,0.003,0.003,0.004,0.007c0.004,0.002,0.006,0.008,0.012,0.012c0.092,0.099,0.185,0.198,0.28,0.295
			c0.029,0.029,0.06,0.058,0.092,0.091c0.071,0.073,0.146,0.146,0.222,0.219c0.032,0.031,0.063,0.06,0.094,0.087
			c0.1,0.098,0.2,0.19,0.305,0.281c0.002,0,0.004,0.002,0.005,0.003c0.018,0.015,0.036,0.031,0.053,0.045
			c0.091,0.08,0.185,0.159,0.279,0.235c0.038,0.031,0.075,0.062,0.112,0.092c0.08,0.062,0.158,0.123,0.236,0.184
			c0.042,0.03,0.083,0.061,0.126,0.094c0.084,0.063,0.172,0.124,0.259,0.188c0.03,0.022,0.062,0.047,0.097,0.065
			c0.008,0.009,0.016,0.016,0.025,0.021c0.086,0.058,0.168,0.113,0.252,0.169c0.038,0.022,0.075,0.047,0.111,0.071
			c0.131,0.084,0.263,0.165,0.394,0.243c0.039,0.022,0.075,0.042,0.112,0.063c0.098,0.058,0.197,0.111,0.297,0.166
			c0.055,0.031,0.111,0.059,0.167,0.088c0.067,0.035,0.14,0.073,0.21,0.108c0.018,0.006,0.035,0.016,0.051,0.022
			c0.031,0.015,0.059,0.029,0.086,0.044c0.11,0.053,0.225,0.104,0.341,0.156c0.022,0.011,0.045,0.021,0.07,0.032
			c0.128,0.057,0.26,0.111,0.395,0.163c0.031,0.012,0.062,0.025,0.097,0.038c0.12,0.047,0.246,0.092,0.371,0.137
			c0.015,0.009,0.03,0.013,0.045,0.018c0.139,0.048,0.275,0.092,0.417,0.135c0.033,0.009,0.066,0.021,0.099,0.03
			C8.9,20.561,9.038,20.61,9.184,20.64c9.29,1.69,11.988-5.584,11.988-5.584c-2.268,2.95-6.291,3.732-10.102,2.865
			c-0.143-0.031-0.282-0.077-0.426-0.12c-0.032-0.01-0.07-0.021-0.104-0.032c-0.139-0.04-0.275-0.087-0.41-0.133
			c-0.018-0.004-0.039-0.014-0.058-0.021c-0.121-0.043-0.241-0.088-0.359-0.135c-0.034-0.014-0.068-0.026-0.102-0.039
			c-0.132-0.051-0.263-0.106-0.39-0.164c-0.028-0.009-0.051-0.021-0.079-0.032c-0.112-0.05-0.219-0.101-0.328-0.152
			c-0.033-0.016-0.063-0.03-0.095-0.046c-0.085-0.042-0.17-0.084-0.253-0.13c-0.059-0.029-0.117-0.059-0.171-0.089
			c-0.102-0.053-0.205-0.112-0.308-0.171c-0.03-0.021-0.065-0.038-0.102-0.058c-0.131-0.08-0.266-0.16-0.396-0.243
			c-0.037-0.023-0.072-0.047-0.107-0.071c-0.096-0.061-0.19-0.123-0.283-0.188c-0.028-0.021-0.06-0.044-0.09-0.064
			c-0.09-0.064-0.178-0.126-0.268-0.193c-0.039-0.029-0.077-0.059-0.119-0.088c-0.08-0.062-0.161-0.125-0.24-0.188
			c-0.035-0.029-0.071-0.059-0.106-0.085c-0.104-0.083-0.201-0.169-0.299-0.254c-0.01-0.011-0.024-0.02-0.035-0.027
			c-0.107-0.095-0.212-0.192-0.316-0.287c-0.032-0.03-0.058-0.058-0.089-0.088c-0.076-0.074-0.15-0.146-0.226-0.22
			c-0.031-0.032-0.06-0.062-0.088-0.091c-0.095-0.095-0.188-0.193-0.279-0.295c-0.006-0.003-0.01-0.007-0.015-0.013
			c-0.095-0.107-0.188-0.212-0.28-0.322c-0.027-0.029-0.051-0.059-0.074-0.087c-0.068-0.085-0.137-0.168-0.205-0.25
			c-0.022-0.032-0.047-0.063-0.072-0.094c-0.08-0.105-0.158-0.209-0.234-0.314c-2.115-2.88-2.879-6.862-1.187-10.13"/>
		<path style="fill:#0669AC;" d="M7.343,2.582C5.95,4.58,6.027,7.257,7.113,9.371c0.178,0.355,0.383,0.698,0.612,1.025
			c0.208,0.299,0.437,0.653,0.717,0.893c0.097,0.111,0.203,0.218,0.311,0.325c0.027,0.025,0.054,0.052,0.082,0.08
			c0.105,0.099,0.21,0.196,0.319,0.292c0.003,0.004,0.009,0.009,0.012,0.013c0.001,0,0.004,0.003,0.004,0.003
			c0.12,0.104,0.244,0.207,0.371,0.305c0.03,0.021,0.057,0.044,0.086,0.064c0.127,0.1,0.256,0.193,0.385,0.287
			c0.006,0.002,0.009,0.005,0.016,0.005c0.057,0.043,0.116,0.08,0.179,0.121c0.025,0.017,0.053,0.038,0.081,0.054
			c0.095,0.062,0.19,0.12,0.288,0.179c0.015,0.006,0.029,0.015,0.043,0.021c0.082,0.048,0.168,0.097,0.255,0.142
			c0.03,0.018,0.06,0.032,0.089,0.049c0.06,0.029,0.12,0.062,0.178,0.093c0.007,0.004,0.019,0.006,0.028,0.012
			c0.125,0.062,0.249,0.118,0.371,0.171c0.03,0.014,0.056,0.025,0.084,0.035c0.1,0.043,0.203,0.086,0.304,0.126
			c0.044,0.013,0.088,0.031,0.13,0.045c0.092,0.035,0.187,0.068,0.279,0.097c0.046,0.016,0.086,0.029,0.126,0.042
			c0.133,0.041,0.267,0.096,0.407,0.117c7.168,1.188,8.827-4.329,8.827-4.329c-1.493,2.15-4.385,3.171-7.468,2.373
			c-0.14-0.036-0.274-0.076-0.406-0.119c-0.044-0.01-0.081-0.022-0.122-0.038c-0.096-0.029-0.191-0.062-0.284-0.096
			c-0.041-0.016-0.087-0.032-0.127-0.048c-0.105-0.04-0.206-0.079-0.306-0.124c-0.03-0.01-0.06-0.022-0.083-0.033
			c-0.127-0.056-0.253-0.113-0.375-0.173c-0.063-0.033-0.124-0.064-0.187-0.099c-0.038-0.018-0.074-0.035-0.106-0.053
			c-0.084-0.043-0.16-0.089-0.239-0.136c-0.018-0.009-0.038-0.02-0.056-0.03c-0.097-0.06-0.197-0.118-0.287-0.178
			c-0.032-0.018-0.059-0.038-0.088-0.058c-0.062-0.04-0.125-0.08-0.189-0.124c-0.133-0.09-0.261-0.186-0.388-0.283
			c-0.029-0.023-0.058-0.044-0.086-0.069C9.544,9.285,8.477,7.828,7.97,6.178C7.435,4.465,7.553,2.54,8.475,0.98"/>
		<path style="fill:#0669AC;" d="M12.358,0.844c-0.82,1.206-0.9,2.703-0.333,4.033c0.6,1.413,1.829,2.521,3.261,3.046
			c0.058,0.023,0.115,0.042,0.175,0.063c0.029,0.008,0.052,0.017,0.082,0.025c0.083,0.026,0.166,0.056,0.252,0.073
			c3.961,0.766,5.036-2.032,5.321-2.444c-0.941,1.356-2.522,1.679-4.465,1.208c-0.151-0.037-0.319-0.092-0.466-0.146
			c-0.188-0.066-0.376-0.144-0.559-0.229c-0.341-0.165-0.672-0.366-0.977-0.597C12.913,4.559,11.838,2.045,12.969,0"/>
	</g>
</g>
<g id="Layer_1">
</g>
</svg>
