<?xml version="1.0" encoding="iso-8859-1"?>
<!-- Generator: Adobe Illustrator 16.2.0, SVG Export Plug-In . SVG Version: 6.00 Build 0)  -->
<!DOCTYPE svg PUBLIC "-//W3C//DTD SVG 1.1//EN" "http://www.w3.org/Graphics/SVG/1.1/DTD/svg11.dtd">
<svg version="1.1" xmlns="http://www.w3.org/2000/svg" xmlns:xlink="http://www.w3.org/1999/xlink" x="0px" y="0px"
	 width="19.449px" height="21.889px" viewBox="0 0 19.449 21.889" style="enable-background:new 0 0 19.449 21.889;"
	 xml:space="preserve">
<g id="JS">
	<g>
		<g>
			<path style="fill:#FCD93A;" d="M0,0l1.823,19.761l7.9,2.127l7.903-2.127L19.449,0H0z M16.17,18.534l-6.446,1.738l-6.446-1.738
				L1.712,1.562h16.024L16.17,18.534z"/>
		</g>
		<polygon style="fill:#FCD93A;" points="6.926,4.066 8.785,4.066 8.785,17.089 3.633,15.564 3.452,13.303 7.035,14.245 		"/>
		<polygon style="fill:#FCD93A;" points="16.588,4.066 10.463,4.066 10.463,12.489 14.207,11.833 14.139,13.914 10.463,14.756 
			10.463,17.089 15.639,15.703 16.188,9.417 12.322,9.868 12.371,6.348 16.404,6.327 		"/>
	</g>
</g>
<g id="Layer_1">
</g>
</svg>
