<?xml version="1.0" encoding="utf-8"?>
<!-- Generator: Adobe Illustrator 16.2.0, SVG Export Plug-In . SVG Version: 6.00 Build 0)  -->
<!DOCTYPE svg PUBLIC "-//W3C//DTD SVG 1.1//EN" "http://www.w3.org/Graphics/SVG/1.1/DTD/svg11.dtd">
<svg version="1.1" id="Layer_1" xmlns="http://www.w3.org/2000/svg" xmlns:xlink="http://www.w3.org/1999/xlink" x="0px" y="0px"
	 width="1020px" height="441px" viewBox="0 0 1020 441" enable-background="new 0 0 1020 441" xml:space="preserve">
<g>
	<path fill="none" stroke="#27A1D6" stroke-width="5" stroke-miterlimit="10" d="M336.656,78.387h84.226c1.65,0,3,1.35,3,3V118
		c0,1.65,1.353,3,3,3h80.453c1.65,0,3,1.35,3,3v59.912"/>
</g>
<g id="Logo_artwork">
</g>
<g>
	<path fill="none" stroke="#FCD93A" stroke-width="6" stroke-miterlimit="10" d="M102.971,200.255V268c0,1.65,1.35,3,3,3h135.362
		c1.65,0,4.35,0,6,0h64c1.65,0,3-1.35,3-3v-42.307c0-1.65,1.35-3.002,3-3.002l145.628-0.074"/>
</g>
<g>
	<path fill="none" stroke="#F28318" stroke-width="8" stroke-miterlimit="10" d="M183.773,365.66V382c0,1.65,1.35,3,3,3h115.678
		c1.65,0,3-1.35,3-3v-39.34c0-1.65,1.35-3,3-3h27.214c1.65,0,3-1.35,3-3v-84.072c0-1.65,1.35-3,3-3h131.83"/>
</g>
<g>
	<path fill="none" stroke="#E96DAB" stroke-width="8" stroke-miterlimit="10" d="M236.287,180.848v-35.175c0-1.65,1.35-3,3-3
		h114.698c1.647,0,3,1.35,3,3v52.845c0,1.65,1.35,3,3,3h107.039"/>
</g>
<g>
	<path fill="none" stroke="#EF662A" stroke-width="8" stroke-miterlimit="10" d="M411.613,367.275V382c0,1.65,1.35,3,3,3h62.77
		c1.65,0,3-1.35,3-3v-59.332c0-1.65,1.353-3,3-3h11.285c1.65,0,3-1.35,3-3v-46.129"/>
</g>
<g>
	<path fill="none" stroke="#006EB9" stroke-width="9" stroke-miterlimit="10" d="M521.001,271.539v42.755c0,1.649,1.35,3,3,3h12.225
		c1.65,0,3,1.351,3,3v89.707c0,1.65,1.353,3,3,3h98.934c1.647,0,3-1.35,3-3v-13.285"/>
</g>
<g>
	<path fill="none" stroke="#7F7D80" stroke-width="5" stroke-miterlimit="10" d="M766.902,374.783v-66.454c0-1.649-1.353-3-3-3
		H688.2c-1.65,0-3-1.351-3-3v-35.663c0-1.65-1.353-3-3-3H537.643"/>
</g>
<g>
	<path fill="none" stroke="#0669AC" stroke-width="8" stroke-miterlimit="10" d="M554.855,196.255v-58.914c0-1.65,1.35-3,3-3
		h156.896c1.65,0,3-1.35,3-3v-30.675"/>
</g>
<g>
	<path fill="none" stroke="#3040D4" stroke-width="5" stroke-miterlimit="10" d="M911.2,246.104V268c0,1.65-1.353,3-3,3H728.668
		c-1.65,0-3-1.35-3-3v-56.667c0-1.65-1.35-3-3-3h-63.25c-1.65,0-3,1.35-3,3v21.333c0,1.65-1.35,3-3,3h-95.381"/>
</g>
<g>
	<path fill="none" stroke="#EBB01A" stroke-width="9" stroke-miterlimit="10" d="M849.931,146.488v21.649c0,1.65-1.35,3-3,3H639.248
		c-1.65,0-3,1.35-3,3v38.529c0,1.65-1.35,3-3,3h-73.471"/>
</g>
<g id="Layer_3">
</g>
<g id="Codekit">
	<path fill="#F28318" d="M202.486,330.116c-0.147-1.687-1.682-3.205-3.389-3.359c-9.981-0.69-19.871-0.688-29.853,0
		c-1.706,0.154-3.24,1.675-3.386,3.359c-0.739,9.932-0.739,19.75,0,29.685c0.146,1.686,1.68,3.202,3.391,3.356
		c9.979,0.69,19.87,0.69,29.853,0c1.708-0.154,3.242-1.673,3.389-3.356C203.227,349.866,203.227,340.048,202.486,330.116z
		 M179.147,354.247l-9.29-9.292l9.29-9.286l2.291,2.313l-6.67,6.67l6.955,6.998L179.147,354.247z M189.197,354.247l-2.568-2.597
		l6.95-6.998l-6.668-6.672l2.286-2.313l9.288,9.288L189.197,354.247z"/>
</g>
<g id="Layer_1_2_">
</g>
<g>
	<path fill="#27A1D6" d="M296.872,76.589c0,6.752,3.922,12.59,9.614,15.352l-8.137-22.296
		C297.401,71.766,296.872,74.115,296.872,76.589z"/>
	<path fill="#27A1D6" d="M325.456,75.726c0-2.107-0.757-3.564-1.408-4.699c-0.859-1.406-1.67-2.596-1.67-4.006
		c0-1.569,1.19-3.028,2.866-3.028c0.071,0,0.146,0.009,0.217,0.015c-3.035-2.782-7.078-4.479-11.519-4.479
		c-5.968,0-11.21,3.06-14.265,7.69c0.4,0.011,0.778,0.021,1.096,0.021c1.787,0,4.55-0.219,4.55-0.219
		c0.917-0.055,1.021,1.297,0.109,1.405c0,0-0.924,0.109-1.953,0.161l6.214,18.482l3.737-11.203l-2.663-7.278
		c-0.918-0.052-1.792-0.161-1.792-0.161c-0.918-0.056-0.808-1.462,0.114-1.406c0,0,2.811,0.219,4.499,0.219
		c1.79,0,4.55-0.219,4.55-0.219c0.922-0.055,1.025,1.298,0.11,1.406c0,0-0.931,0.109-1.955,0.161l6.164,18.339l1.705-5.685
		C324.897,78.88,325.456,77.188,325.456,75.726z"/>
	<path fill="#27A1D6" d="M314.238,78.083l-5.13,14.875c1.533,0.452,3.144,0.69,4.831,0.69c1.984,0,3.896-0.337,5.664-0.966
		c-0.041-0.067-0.086-0.153-0.118-0.235L314.238,78.083z"/>
	<path fill="#27A1D6" d="M328.913,68.404c0.073,0.542,0.114,1.128,0.114,1.753c0,1.731-0.333,3.677-1.295,6.112l-5.216,15.069
		c5.07-2.962,8.483-8.452,8.483-14.749C331,73.62,330.244,70.833,328.913,68.404z"/>
	<path fill="#27A1D6" d="M313.938,56.701c-10.975,0-19.896,8.921-19.896,19.886c0,10.968,8.921,19.885,19.896,19.885
		c10.972,0,19.892-8.918,19.892-19.885C333.829,65.623,324.907,56.701,313.938,56.701z M313.938,95.564
		c-10.47,0-18.984-8.515-18.984-18.975c0-10.464,8.51-18.975,18.984-18.975c10.462,0,18.979,8.508,18.979,18.975
		C332.916,87.048,324.403,95.564,313.938,95.564z"/>
</g>
<g id="Sass">
	<g>
		<path fill="#E96DAB" d="M227.976,214.633c-1.458,1.542-1.864,3.474-1.051,3.944c0.754,0.436,2.51-0.085,3.765-1.45
			c0.411-0.451,0.746-0.937,0.999-1.458c0.05-0.108,0.097-0.208,0.139-0.316c0.041-0.104,0.083-0.212,0.119-0.324
			c0.324-0.979,0.363-2.063,0.044-3.231c-0.067,0.039-0.133,0.077-0.2,0.112l0.002,0.008
			C231.798,211.916,229.543,212.976,227.976,214.633z"/>
		<path fill="#E96DAB" d="M236.288,182.978c-11.94,0-21.621,9.679-21.621,21.619c0,11.938,9.681,21.615,21.621,21.615
			s21.619-9.677,21.619-21.615C257.905,192.656,248.228,182.978,236.288,182.978z M243.335,202.146
			c-3.747,1.45-6.845,1.22-8.119,0.804c-1.448-0.477-2.296-1.429-2.5-1.97c-0.081-0.208-0.222-0.565,0-0.687
			c0.135-0.077,0.19-0.058,0.551,0.343c0.351,0.382,1.735,1.403,4.379,1.106c6.93-0.775,11.102-6.155,9.783-9.052
			c-0.929-2.024-6.269-2.939-12.938,0.382c-8.145,4.058-8.586,7.402-8.655,8.67c-0.193,3.497,4.312,5.334,6.749,7.936
			c0.056,0.062,0.112,0.122,0.166,0.189c0.736-0.273,1.758-0.432,3.381-0.455c3.94-0.069,6.165,2.525,6.076,4.854
			c-0.073,1.832-1.75,2.583-2.066,2.633c-0.224,0.039-0.347,0.041-0.378-0.131c-0.023-0.12,0.058-0.178,0.324-0.347
			c0.27-0.162,1.06-0.706,1.203-1.696c0.143-0.995-0.602-3.362-4.394-3.805c-1.347-0.154-2.405-0.05-3.312,0.189
			c0.657,1.453,0.785,4.368-0.73,6.624c-1.567,2.336-4.482,3.759-7.329,2.972c-0.917-0.254-2.303-2.155-1.108-4.796
			c1.135-2.51,5.974-4.962,6.637-5.29v-0.008c-2.244-1.932-7.697-4.538-8.466-8.518c-0.218-1.134,0.31-3.836,3.631-6.941
			c2.792-2.606,6.672-4.611,10.257-5.881c6.028-2.142,12.395-0.879,13.374,2.961C250.813,196.006,247.534,200.523,243.335,202.146z"
			/>
	</g>
</g>
<g id="Layer_1_3_">
</g>
<g id="ps">
	<g>
		<g>
			<path fill="#3040D4" d="M911.206,225.752c-0.7-0.587-1.774-0.895-3.239-0.895c-1.35,0-2.342,0.098-3.059,0.226v10.819h1.983
				v-4.133c0.263,0.049,0.604,0.065,0.979,0.065c1.415,0,2.667-0.375,3.466-1.171c0.617-0.587,0.944-1.449,0.944-2.49
				C912.28,227.15,911.856,226.289,911.206,225.752z M907.87,230.275c-0.407,0-0.732-0.018-0.979-0.082v-3.709
				c0.214-0.049,0.604-0.099,1.155-0.099c1.383,0,2.229,0.65,2.229,1.871C910.277,229.543,909.367,230.275,907.87,230.275z"/>
			<path fill="#3040D4" d="M916.021,231.171c-1.011-0.358-1.384-0.603-1.384-1.104c0-0.486,0.394-0.832,1.105-0.832
				c0.701,0,1.336,0.263,1.677,0.457l0.393-1.416c-0.455-0.243-1.221-0.471-2.1-0.471c-1.84,0-2.994,1.092-2.994,2.488
				c-0.018,0.928,0.637,1.773,2.184,2.311c0.975,0.34,1.301,0.617,1.301,1.154c0,0.52-0.394,0.879-1.271,0.879
				c-0.714,0-1.577-0.294-2.034-0.568l-0.392,1.449c0.585,0.322,1.45,0.566,2.404,0.566c2.104,0,3.224-1.057,3.224-2.488
				C918.119,232.425,917.451,231.691,916.021,231.171z"/>
		</g>
		<g>
			<g>
				<path fill="#3040D4" d="M897.936,217.667v25.92h26.529v-25.92H897.936z M922.357,241.532H900.1v-21.757h22.256L922.357,241.532
					L922.357,241.532z"/>
			</g>
		</g>
	</g>
</g>
<g id="Layer_1_4_">
</g>
<g id="JS">
	<g>
		<g>
			<path fill="#FCD93A" d="M84.182,153.466l3.522,38.181l15.264,4.109l15.27-4.109l3.522-38.181H84.182z M115.424,189.276
				l-12.454,3.356l-12.455-3.356l-3.025-32.793h30.961L115.424,189.276z"/>
		</g>
		<polygon fill="#FCD93A" points="97.563,161.321 101.156,161.321 101.156,186.483 91.201,183.536 90.852,179.169 97.775,180.989 		
			"/>
		<polygon fill="#FCD93A" points="116.232,161.321 104.397,161.321 104.397,177.597 111.632,176.329 111.5,180.35 104.397,181.977 
			104.397,186.483 114.398,183.807 115.458,171.661 107.99,172.532 108.084,165.73 115.877,165.69 		"/>
	</g>
</g>
<g id="Layer_1_5_">
</g>
<g id="jQuery">
	<g>
		<path fill="#0669AC" d="M703.482,67.976c-3.521,5.053-3.089,11.627-0.394,16.985c0.062,0.132,0.128,0.258,0.191,0.383
			c0.04,0.082,0.082,0.163,0.126,0.247c0.021,0.043,0.056,0.095,0.079,0.136c0.038,0.087,0.089,0.169,0.136,0.252
			c0.088,0.146,0.173,0.293,0.26,0.44c0.05,0.077,0.093,0.161,0.151,0.242c0.09,0.155,0.195,0.309,0.294,0.465
			c0.04,0.063,0.08,0.128,0.131,0.194c0.138,0.208,0.271,0.418,0.426,0.624c0,0.005,0.004,0.013,0.011,0.014
			c0.027,0.034,0.053,0.068,0.073,0.098c0.13,0.177,0.262,0.351,0.396,0.522c0.043,0.061,0.099,0.124,0.143,0.19
			c0.125,0.15,0.247,0.298,0.367,0.449c0.045,0.052,0.09,0.103,0.141,0.163c0.164,0.194,0.333,0.388,0.507,0.58
			c0,0,0.008,0.005,0.009,0.012c0.007,0.003,0.011,0.014,0.021,0.021c0.167,0.183,0.339,0.363,0.512,0.54
			c0.056,0.053,0.109,0.107,0.171,0.166c0.129,0.134,0.268,0.269,0.404,0.403c0.06,0.055,0.116,0.108,0.174,0.158
			c0.183,0.179,0.363,0.347,0.559,0.516c0.004,0,0.007,0.003,0.008,0.004c0.034,0.028,0.067,0.056,0.097,0.083
			c0.17,0.147,0.344,0.292,0.516,0.429c0.066,0.057,0.137,0.115,0.203,0.17c0.146,0.112,0.29,0.225,0.433,0.336
			c0.076,0.056,0.148,0.11,0.229,0.172c0.152,0.116,0.315,0.227,0.477,0.345c0.056,0.039,0.111,0.086,0.178,0.118
			c0.016,0.018,0.029,0.031,0.046,0.039c0.157,0.105,0.31,0.208,0.462,0.31c0.068,0.04,0.137,0.085,0.202,0.13
			c0.238,0.154,0.482,0.302,0.722,0.443c0.071,0.042,0.141,0.078,0.204,0.117c0.183,0.105,0.36,0.203,0.546,0.303
			c0.101,0.057,0.201,0.107,0.308,0.161c0.121,0.064,0.255,0.134,0.384,0.198c0.033,0.011,0.062,0.029,0.093,0.04
			c0.061,0.028,0.107,0.053,0.158,0.08c0.201,0.096,0.41,0.192,0.625,0.286c0.04,0.02,0.08,0.038,0.128,0.059
			c0.233,0.103,0.478,0.202,0.721,0.299c0.061,0.021,0.116,0.044,0.182,0.069c0.22,0.086,0.447,0.168,0.678,0.25
			c0.029,0.016,0.055,0.022,0.084,0.032c0.254,0.087,0.502,0.168,0.763,0.247c0.062,0.018,0.12,0.039,0.185,0.056
			c0.262,0.076,0.517,0.166,0.78,0.222c17.01,3.094,21.948-10.224,21.948-10.224c-4.152,5.401-11.519,6.834-18.494,5.246
			c-0.262-0.057-0.518-0.141-0.779-0.219c-0.062-0.018-0.129-0.04-0.189-0.06c-0.255-0.074-0.505-0.16-0.751-0.243
			c-0.033-0.008-0.07-0.025-0.106-0.038c-0.222-0.081-0.439-0.164-0.655-0.25c-0.062-0.024-0.125-0.046-0.188-0.071
			c-0.239-0.093-0.479-0.193-0.712-0.3c-0.052-0.016-0.094-0.038-0.146-0.058c-0.207-0.092-0.399-0.186-0.603-0.278
			c-0.059-0.029-0.114-0.056-0.175-0.085c-0.152-0.076-0.311-0.154-0.461-0.237c-0.107-0.054-0.215-0.11-0.312-0.164
			c-0.189-0.098-0.378-0.206-0.565-0.312c-0.053-0.04-0.119-0.07-0.187-0.107c-0.238-0.146-0.485-0.293-0.728-0.446
			c-0.064-0.04-0.129-0.086-0.195-0.128c-0.175-0.112-0.349-0.225-0.519-0.344c-0.052-0.038-0.106-0.081-0.164-0.116
			c-0.164-0.118-0.324-0.23-0.488-0.354c-0.072-0.054-0.143-0.108-0.219-0.161c-0.146-0.115-0.296-0.229-0.439-0.345
			c-0.063-0.052-0.132-0.107-0.193-0.155c-0.19-0.152-0.366-0.31-0.549-0.466c-0.019-0.019-0.041-0.035-0.063-0.048
			c-0.193-0.175-0.387-0.351-0.577-0.525c-0.058-0.056-0.105-0.107-0.163-0.162c-0.14-0.136-0.272-0.268-0.413-0.404
			c-0.059-0.06-0.107-0.112-0.159-0.166c-0.175-0.174-0.346-0.354-0.516-0.54c-0.01-0.005-0.017-0.012-0.023-0.023
			c-0.174-0.197-0.345-0.389-0.514-0.59c-0.049-0.054-0.094-0.108-0.136-0.159c-0.125-0.156-0.253-0.308-0.376-0.458
			c-0.041-0.059-0.086-0.116-0.132-0.172c-0.146-0.193-0.29-0.382-0.43-0.575c-3.869-5.272-5.271-12.564-2.173-18.546"/>
		<path fill="#0669AC" d="M714.4,63.713c-2.553,3.659-2.41,8.559-0.422,12.43c0.325,0.648,0.7,1.276,1.118,1.876
			c0.384,0.546,0.804,1.196,1.312,1.635c0.18,0.203,0.372,0.399,0.572,0.596c0.047,0.045,0.097,0.094,0.148,0.145
			c0.189,0.183,0.384,0.359,0.582,0.535c0.007,0.008,0.02,0.018,0.023,0.025c0.001,0,0.007,0.005,0.007,0.005
			c0.22,0.189,0.446,0.378,0.68,0.558c0.055,0.04,0.104,0.081,0.157,0.118c0.231,0.182,0.469,0.352,0.704,0.526
			c0.012,0.004,0.016,0.008,0.027,0.008c0.105,0.079,0.216,0.146,0.328,0.222c0.044,0.03,0.1,0.068,0.149,0.099
			c0.173,0.112,0.346,0.22,0.528,0.327c0.023,0.011,0.052,0.029,0.076,0.04c0.149,0.087,0.309,0.176,0.469,0.258
			c0.053,0.034,0.106,0.059,0.161,0.09c0.108,0.053,0.221,0.115,0.325,0.169c0.014,0.01,0.035,0.013,0.053,0.024
			c0.229,0.112,0.456,0.216,0.679,0.313c0.055,0.024,0.104,0.044,0.154,0.064c0.184,0.079,0.372,0.158,0.557,0.23
			c0.08,0.023,0.16,0.056,0.237,0.082c0.168,0.064,0.344,0.124,0.511,0.178c0.084,0.03,0.157,0.053,0.231,0.076
			c0.241,0.075,0.486,0.175,0.744,0.215c13.122,2.174,16.16-7.927,16.16-7.927c-2.73,3.937-8.027,5.806-13.673,4.345
			c-0.257-0.065-0.501-0.139-0.743-0.218c-0.082-0.018-0.146-0.04-0.223-0.07c-0.178-0.052-0.352-0.113-0.521-0.176
			c-0.073-0.027-0.159-0.058-0.229-0.087c-0.194-0.074-0.379-0.145-0.562-0.228c-0.054-0.018-0.107-0.041-0.15-0.06
			c-0.232-0.103-0.464-0.208-0.688-0.317c-0.111-0.061-0.226-0.119-0.34-0.181c-0.068-0.033-0.137-0.064-0.195-0.099
			c-0.151-0.079-0.292-0.162-0.437-0.248c-0.033-0.017-0.068-0.038-0.104-0.056c-0.178-0.109-0.358-0.216-0.523-0.325
			c-0.059-0.033-0.108-0.07-0.161-0.105c-0.111-0.074-0.229-0.146-0.345-0.227c-0.243-0.167-0.479-0.343-0.712-0.519
			c-0.053-0.042-0.105-0.08-0.156-0.127c-2.481-1.948-4.438-4.617-5.364-7.638c-0.979-3.136-0.764-6.66,0.925-9.518"/>
		<path fill="#0669AC" d="M723.58,60.531c-1.5,2.208-1.646,4.949-0.609,7.384c1.103,2.587,3.352,4.615,5.975,5.577
			c0.104,0.041,0.209,0.077,0.317,0.115c0.056,0.016,0.097,0.032,0.15,0.046c0.152,0.048,0.304,0.102,0.462,0.134
			c7.251,1.402,9.222-3.721,9.742-4.475c-1.726,2.484-4.619,3.073-8.177,2.212c-0.275-0.068-0.583-0.169-0.854-0.266
			c-0.343-0.122-0.688-0.265-1.021-0.421c-0.625-0.302-1.23-0.67-1.789-1.092c-3.18-2.413-5.146-7.014-3.076-10.758"/>
	</g>
</g>
<g id="Layer_1_6_">
</g>
<g>
	<path fill="#EF662A" d="M388.881,312.064l4.139,46.432l18.582,5.16l18.601-5.155l4.145-46.437H388.881z M426.558,355.465
		l-14.954,4.146l-14.938-4.147l-3.521-39.499h36.938L426.558,355.465z"/>
	<polygon fill="#EF662A" points="397.35,321.557 398.885,338.775 418.624,338.775 417.961,346.163 411.606,347.882 405.263,346.166 
		404.838,341.423 399.123,341.423 399.94,350.566 411.605,353.807 423.283,350.566 424.85,333.083 404.094,333.083 403.572,327.251 
		425.348,327.251 425.367,327.251 425.875,321.557 	"/>
</g>
<path fill="#7F7D80" d="M766.9,378.139c-11.498,0-20.824,9.323-20.824,20.827c0,9.201,5.967,17.008,14.244,19.762
	c1.041,0.189,1.422-0.45,1.422-1.004c0-0.492-0.021-1.806-0.029-3.544c-5.793,1.261-7.016-2.791-7.016-2.791
	c-0.945-2.403-2.312-3.047-2.312-3.047c-1.891-1.291,0.145-1.266,0.145-1.266c2.09,0.146,3.189,2.146,3.189,2.146
	c1.857,3.183,4.875,2.264,6.062,1.73c0.188-1.346,0.727-2.265,1.32-2.785c-4.625-0.526-9.484-2.312-9.484-10.293
	c0-2.272,0.811-4.133,2.145-5.588c-0.215-0.527-0.93-2.646,0.203-5.515c0,0,1.748-0.561,5.729,2.138
	c1.662-0.464,3.441-0.693,5.215-0.701c1.768,0.008,3.551,0.237,5.213,0.701c3.977-2.696,5.723-2.138,5.723-2.138
	c1.139,2.869,0.42,4.985,0.207,5.515c1.334,1.455,2.143,3.312,2.143,5.588c0,8.002-4.869,9.762-9.509,10.276
	c0.745,0.645,1.411,1.915,1.411,3.856c0,2.784-0.021,5.029-0.021,5.713c0,0.559,0.375,1.203,1.43,1.001
	c8.271-2.759,14.23-10.561,14.23-19.759C787.729,387.462,778.404,378.139,766.9,378.139z"/>
<polygon fill="#2A88DF" points="630.346,337.861 681.062,337.861 671.406,383.123 644.453,391.689 620.854,383.123 623.04,370.948 
	633.283,370.948 632.36,375.902 646.551,381.193 662.505,376.239 665.277,364.777 624.553,364.777 626.733,354.489 667.209,354.489 
	668.551,348.277 628.245,348.277 "/>
<polygon fill="#EBB01A" points="826.16,110.533 839.542,110.533 848.633,138.55 "/>
<polygon fill="#EBB01A" points="873.642,110.533 860.26,110.533 851.17,138.55 "/>
<polygon fill="#EBB01A" points="838.842,108.656 826.051,108.656 832.421,97.558 "/>
<polygon fill="#EBB01A" points="856.326,108.656 843.535,108.656 849.905,97.558 "/>
<polygon fill="#EBB01A" points="852.247,97.241 865.038,97.241 858.669,108.34 "/>
<polygon fill="#EBB01A" points="834.763,97.241 847.554,97.241 841.185,108.34 "/>
<polygon fill="#EBB01A" points="842.07,110.777 857.791,110.777 849.959,138.55 "/>
<polygon fill="#EBB01A" points="873.811,108.656 861.02,108.656 867.39,97.558 "/>
<path fill="#FFFFFF" d="M510,276.125c-30.672,0-55.626-24.953-55.626-55.625s24.954-55.625,55.626-55.625
	s55.625,24.954,55.625,55.625S540.672,276.125,510,276.125z M494.564,197.396c-10.265,0-16.149,5.751-16.149,15.78
	c0,8.198,7.831,15.348,7.91,15.417l23.092,22.279c0.16,0.157,0.368,0.239,0.583,0.239c0.219,0,0.422-0.08,0.571-0.229l23.098-22.248
	c1.857-1.782,7.916-8.168,7.916-15.46c0-10.029-5.886-15.78-16.146-15.78c-5.868,0-11.53,4.727-14.385,7.544L510,205.981
	l-1.054-1.042C506.094,202.123,500.434,197.396,494.564,197.396z"/>
</svg>
