<?xml version="1.0" encoding="utf-8"?>
<!-- Generator: Adobe Illustrator 16.2.0, SVG Export Plug-In . SVG Version: 6.00 Build 0)  -->
<!DOCTYPE svg PUBLIC "-//W3C//DTD SVG 1.1//EN" "http://www.w3.org/Graphics/SVG/1.1/DTD/svg11.dtd">
<svg version="1.1" id="Layer_1" xmlns="http://www.w3.org/2000/svg" xmlns:xlink="http://www.w3.org/1999/xlink" x="0px" y="0px"
	 width="14.417px" height="20.895px" viewBox="0 0 14.417 20.895" enable-background="new 0 0 14.417 20.895" xml:space="preserve">
<g id="Layer_1_1_">
</g>
<path d="M14.417,20.895c-0.146-0.685-1.613-2.885-2.006-3.618c0,0,0.051-2.298-0.344-2.348c-0.088-0.011-0.588,0.176-1.305,0.467
	c-0.047-0.659-0.162-1.444,0.006-1.934c0.232-0.686,2.824-3.766,2.824-6.603c0-0.437-0.047-0.843-0.123-1.225
	c0.141-0.067,0.271-0.121,0.123-0.149c-0.045-0.008-0.105-0.025-0.164-0.049c-0.014-0.056-0.029-0.11-0.045-0.166
	c0.146,0.001,0.287,0.017,0.211,0.003c-0.039-0.006-0.137-0.045-0.236-0.093c-0.016-0.056-0.031-0.113-0.049-0.167
	c0.18,0.018,0.35,0.032,0.285-0.017c-0.041-0.031-0.195-0.078-0.33-0.119c-0.012-0.037-0.027-0.072-0.041-0.109
	c0.143-0.067,0.244-0.213,0.133-0.164c-0.051,0.023-0.117,0.035-0.18,0.04c-0.018-0.04-0.029-0.083-0.047-0.123
	c0.053-0.053,0.104-0.115,0.137-0.154c-0.035,0.037-0.111,0.046-0.189,0.043c-0.021-0.051-0.045-0.099-0.066-0.146
	c0.074-0.077,0.129-0.165,0.041-0.116c-0.025,0.016-0.055,0.021-0.084,0.027c-0.021-0.04-0.041-0.077-0.062-0.115
	C13.097,3.946,13.06,3.49,13,3.611c-0.043,0.085-0.113,0.141-0.229,0.211c-0.002-0.005-0.008-0.011-0.01-0.017l0.092-0.219
	c0,0-0.086,0.045-0.174,0.089c-0.004-0.003-0.006-0.007-0.008-0.01c0.105-0.107,0.207-0.245,0.191-0.432
	c-0.238,0.107-0.271,0.123-0.4,0.129c-0.039-0.053-0.08-0.106-0.121-0.157c0.115-0.134,0.461-0.569,0.461-0.569
	s-0.232,0.183-0.535,0.479C12.25,3.093,12.23,3.072,12.21,3.051c0.146-0.233,0.305-0.628,0.238-0.763
	c-0.131,0.341-0.283,0.469-0.414,0.472c0.049-0.121,0.076-0.239,0.07-0.315c-0.062,0.157-0.094,0.231-0.145,0.304
	c-0.021-0.008-0.039-0.017-0.057-0.028c0.025-0.054,0.051-0.111,0.057-0.146c-0.037,0.045-0.061,0.085-0.082,0.121
	c-0.012-0.01-0.021-0.02-0.033-0.032c-0.01-0.01-0.018-0.019-0.025-0.027c0.125-0.141,0.174-0.387,0.172-0.542
	C11.937,2.27,11.802,2.55,11.599,2.44c-0.002-0.003-0.008-0.005-0.012-0.01c0.033-0.092,0.062-0.196,0.062-0.27
	c-0.029,0.159-0.08,0.188-0.141,0.209c-0.006-0.005-0.012-0.011-0.018-0.016c0.035-0.096,0.066-0.207,0.066-0.285
	c-0.031,0.176-0.088,0.193-0.152,0.215c-0.01-0.008-0.02-0.016-0.027-0.021c0.082-0.157,0.188-0.339,0.312-0.539
	c0.104-0.16-0.65,0.521-0.52,0.195c0.053-0.126,0.076-0.29,0.094-0.433c-0.17,0.188-0.484,0.367-0.484,0.367s0-0.473-0.162-0.814
	c-0.109,0.42-0.211,0.562-0.305,0.591V1.285l-0.119,0.336c-0.002-0.001-0.006-0.002-0.008-0.002
	c-0.02-0.009-0.037-0.016-0.061-0.022c0.004-0.262-0.332-0.874-0.551-1.11c0.045,0.26-0.014,0.604-0.074,0.795L9.406,0.876
	L9.363,1.078C9.255,0.681,8.994,0.133,9.005,0.35c0.014,0.227-0.07,0.771-0.184,0.963c-0.02-0.002-0.041-0.004-0.061-0.007v-0.12
	L8.712,1.237C8.564,0.892,8.242-0.082,8.269,0.291c0.027,0.332-0.07,0.78-0.238,0.964c-0.027-0.001-0.059,0-0.086,0
	C7.927,1.171,7.914,1.08,7.914,1.08L7.847,1.255c-0.027,0.001-0.053,0-0.078,0.001c-0.086-0.191-0.01-0.669-0.215-0.9
	C7.583,0.59,7.507,0.975,7.398,1.2L7.251,1.08l0.06,0.19C7.247,1.273,7.186,1.276,7.122,1.281C6.941,0.98,6.77,0.106,6.739,0.258
	C6.706,0.421,6.576,1.562,6.511,1.203C6.447,0.846,6.113,0.542,5.574,0.379C6.227,1.03,5.99,1.53,5.892,1.204
	C5.794,0.879,5.372,0.65,5.372,0.65S5.46,1.244,5.458,1.54L5.331,1.338l0.041,0.229C5.351,1.572,5.329,1.576,5.31,1.582
	C5.007,1.223,4.294,0.696,4.294,0.696S4.69,1.098,4.849,1.645C4.857,1.671,4.857,1.69,4.857,1.707
	C4.847,1.71,4.835,1.714,4.823,1.717L4.608,1.432l0.16,0.301C4.761,1.735,4.753,1.738,4.745,1.74
	C4.433,1.617,3.873,1.081,3.873,1.081l0.324,0.808l-1.33-0.722c0.661,0.617,0.706,0.657,0.953,0.889
	C3.807,2.06,3.793,2.066,3.781,2.072c-0.008-0.007-0.015-0.013-0.024-0.02C3.28,1.661,2.993,1.592,2.698,1.628
	c0.429,0.113,0.615,0.479,0.461,0.68C3.037,2.224,2.867,2.177,2.804,2.164C2.735,2.148,2.921,2.259,3.001,2.401
	c-0.015,0.008-0.03,0.016-0.044,0.021c-0.044,0.01-0.088,0.02-0.145,0.02C2.406,2.341,2.014,2.199,2.014,2.199
	s0.325,0.193,0.374,0.499c-0.027,0.014-0.046,0.028-0.07,0.045C2.151,2.639,1.975,2.603,1.79,2.592
	c0.134,0.133,0.242,0.222,0.333,0.294C1.502,3.432,2.408,3.865,2.43,4.219C2.47,4.88,1.418,6.591,1.516,7.57
	c0.098,0.979,0.53,1.088,0.343,1.564c0,0-1.125,1.467-1.125,1.834s0.954,0.367,1.051,0.465c0.098,0.099-0.245,0.489-0.269,0.732
	c-0.024,0.245,0.172,0.294,0.196,0.417c0.024,0.122-0.171,0.22-0.146,0.366c0.024,0.146,0.562,0.537,0.538,0.807
	c-0.024,0.269-0.342,1.394,0.93,1.613c1.271,0.221,1.809,0.099,1.98,0.732c0.094,0.35,0.273,1.046,0.418,1.606
	c-1.088,0.485-1.87,0.84-1.87,0.84s-0.048,0.732,0.049,1.368c-0.132,0.257-0.393,0.946-0.393,0.946L14.417,20.895z M10.117,9.513
	C9.97,9.583,9.9,9.626,9.375,9.653c-0.527,0.028-0.639-0.32-0.826-0.307C8.359,9.359,8.251,9.108,8.128,9.15
	c-0.121,0.042,0.148,0.224-0.42,0.251C7.138,9.43,6.339,9.136,6.23,8.773C5.729,8.577,5.472,7.92,5.444,7.615
	c0,0-1.288,0.026-1.288-0.435C3.899,7.207,3.602,7.026,3.615,6.635C3.357,6.426,2.938,5.936,3.182,5.516
	c-0.095-0.182,0.04-0.768,0.271-0.782C3.412,4.454,3.859,3.853,4.144,3.84c0.148-0.448,0.46-0.573,0.637-0.587
	C4.902,3.002,5.593,2.637,5.742,2.68c0.285-0.363,0.812-0.266,1.043-0.251C7.015,2.261,7.517,2.401,7.693,2.54
	c0.109-0.112,0.515,0.042,0.515,0.042C8.425,2.442,9.195,2.68,9.291,2.806c0.137-0.112,0.719,0.196,0.76,0.293
	c0.379-0.07,0.881,0.545,0.977,0.77c0.582,0.068,0.744,1.033,0.744,1.033c0.162-0.055,0.42,0.363,0.395,0.672
	c0.379,0.308,0.379,1.188,0.297,1.495c0.312,0.601-0.068,1.384-0.23,1.537c-0.094,1.271-0.596,1.299-0.865,1.454
	c-0.271,0.153-0.557-0.027-0.689-0.21C10.5,9.947,10.185,9.723,10.117,9.513z"/>
</svg>
