<?xml version="1.0" encoding="utf-8"?>
<!-- Generator: Adobe Illustrator 16.2.0, SVG Export Plug-In . SVG Version: 6.00 Build 0)  -->
<!DOCTYPE svg PUBLIC "-//W3C//DTD SVG 1.1//EN" "http://www.w3.org/Graphics/SVG/1.1/DTD/svg11.dtd">
<svg version="1.1" id="Layer_1" xmlns="http://www.w3.org/2000/svg" xmlns:xlink="http://www.w3.org/1999/xlink" x="0px" y="0px"
	 width="22.5px" height="21.982px" viewBox="0 0 22.5 21.982" enable-background="new 0 0 22.5 21.982" xml:space="preserve">
<g id="ps">
	<g>
		<g>
			<path fill="#2E3DC9" enable-background="new    " d="M11.255,6.856C10.661,6.359,9.75,6.098,8.508,6.098
				c-1.145,0-1.987,0.082-2.594,0.191v9.176h1.683v-3.505c0.222,0.042,0.511,0.057,0.829,0.057c1.2,0,2.262-0.318,2.939-0.993
				c0.523-0.498,0.801-1.229,0.801-2.112C12.166,8.043,11.807,7.312,11.255,6.856z M8.426,10.693c-0.346,0-0.622-0.014-0.829-0.069
				V7.478c0.18-0.042,0.511-0.083,0.98-0.083c1.173,0,1.891,0.552,1.891,1.587C10.468,10.072,9.695,10.693,8.426,10.693z"/>
			<path fill="#2E3DC9" enable-background="new    " d="M15.338,11.452c-0.855-0.304-1.172-0.51-1.172-0.938
				c0-0.413,0.332-0.704,0.938-0.704c0.594,0,1.133,0.221,1.422,0.387l0.332-1.201c-0.387-0.207-1.035-0.399-1.78-0.399
				c-1.56,0-2.539,0.925-2.539,2.111c-0.015,0.786,0.538,1.504,1.849,1.959c0.828,0.289,1.104,0.523,1.104,0.979
				c0,0.44-0.332,0.744-1.076,0.744c-0.606,0-1.339-0.248-1.726-0.481l-0.33,1.228c0.496,0.275,1.229,0.482,2.039,0.482
				c1.783,0,2.733-0.896,2.733-2.11C17.118,12.515,16.552,11.893,15.338,11.452z"/>
		</g>
		<g>
			<g>
				<path fill="#2E3DC9" d="M0,0v21.982h22.5V0H0z M20.712,20.24H1.836V1.788h18.875L20.712,20.24L20.712,20.24z"/>
			</g>
		</g>
	</g>
</g>
<g id="Layer_1_1_">
</g>
</svg>
