<?xml version="1.0" encoding="utf-8"?>
<!-- Generator: Adobe Illustrator 16.2.0, SVG Export Plug-In . SVG Version: 6.00 Build 0)  -->
<!DOCTYPE svg PUBLIC "-//W3C//DTD SVG 1.1//EN" "http://www.w3.org/Graphics/SVG/1.1/DTD/svg11.dtd">
<svg version="1.1" id="Layer_1" xmlns="http://www.w3.org/2000/svg" xmlns:xlink="http://www.w3.org/1999/xlink" x="0px" y="0px"
	 width="21.904px" height="21.904px" viewBox="0 0 21.904 21.904" enable-background="new 0 0 21.904 21.904" xml:space="preserve">
<g id="Sass">
	<g>
		<path fill="#E96DAB" d="M6.742,16.037c-0.738,0.781-0.944,1.76-0.532,1.998c0.382,0.221,1.271-0.043,1.907-0.734
			c0.208-0.229,0.378-0.475,0.506-0.739c0.025-0.054,0.049-0.105,0.07-0.16c0.021-0.053,0.042-0.107,0.061-0.164
			c0.164-0.496,0.183-1.045,0.022-1.637c-0.034,0.02-0.067,0.039-0.101,0.057l0.001,0.004C8.678,14.66,7.536,15.197,6.742,16.037z"
			/>
		<path fill="#E96DAB" d="M10.953,0C4.904,0,0,4.903,0,10.952C0,17,4.904,21.904,10.953,21.904S21.905,17,21.905,10.952
			C21.904,4.903,17.002,0,10.953,0z M14.523,9.711c-1.898,0.734-3.468,0.618-4.113,0.407C9.677,9.877,9.247,9.394,9.143,9.12
			c-0.041-0.106-0.112-0.286,0-0.348C9.212,8.733,9.24,8.743,9.423,8.946c0.177,0.193,0.879,0.711,2.218,0.561
			c3.511-0.393,5.624-3.119,4.956-4.586c-0.47-1.026-3.175-1.49-6.554,0.193c-4.126,2.056-4.35,3.75-4.385,4.393
			c-0.098,1.771,2.185,2.702,3.419,4.02c0.028,0.031,0.057,0.062,0.084,0.096c0.373-0.139,0.891-0.219,1.713-0.231
			c1.996-0.035,3.123,1.28,3.078,2.459c-0.037,0.928-0.887,1.309-1.047,1.334c-0.113,0.02-0.176,0.021-0.191-0.066
			c-0.012-0.061,0.029-0.09,0.164-0.176c0.136-0.082,0.537-0.357,0.609-0.859c0.072-0.504-0.305-1.703-2.226-1.928
			c-0.682-0.078-1.218-0.025-1.677,0.096c0.333,0.736,0.397,2.213-0.37,3.355c-0.794,1.184-2.271,1.905-3.713,1.506
			c-0.465-0.129-1.167-1.092-0.562-2.43c0.575-1.271,3.027-2.513,3.363-2.679v-0.004c-1.137-0.979-3.9-2.299-4.29-4.316
			C3.902,9.11,4.17,7.741,5.852,6.168c1.414-1.321,3.38-2.336,5.197-2.98c3.053-1.085,6.279-0.445,6.775,1.5
			C18.311,6.6,16.65,8.888,14.523,9.711z"/>
	</g>
</g>
<g id="Layer_1_1_">
</g>
</svg>
