<?xml version="1.0" encoding="utf-8"?>
<!-- Generator: Adobe Illustrator 16.2.0, SVG Export Plug-In . SVG Version: 6.00 Build 0)  -->
<!DOCTYPE svg PUBLIC "-//W3C//DTD SVG 1.1//EN" "http://www.w3.org/Graphics/SVG/1.1/DTD/svg11.dtd">
<svg version="1.1" id="Layer_1" xmlns="http://www.w3.org/2000/svg" xmlns:xlink="http://www.w3.org/1999/xlink" x="0px" y="0px"
	 width="22.488px" height="22.311px" viewBox="0 0 22.488 22.311" enable-background="new 0 0 22.488 22.311" xml:space="preserve">
<g id="Layer_1_1_">
</g>
<g>
	<path fill="#27A1D6" d="M1.82,11.126c0,3.753,2.18,6.997,5.344,8.532L2.641,7.267C2.114,8.446,1.82,9.751,1.82,11.126z"/>
	<path fill="#27A1D6" d="M17.707,10.647c0-1.171-0.421-1.981-0.782-2.612c-0.479-0.781-0.929-1.442-0.929-2.226
		c0-0.872,0.661-1.683,1.593-1.683c0.04,0,0.081,0.005,0.121,0.008c-1.688-1.546-3.934-2.489-6.403-2.489
		c-3.316,0-6.23,1.7-7.927,4.274C3.602,5.925,3.812,5.93,3.989,5.93c0.993,0,2.528-0.121,2.528-0.121
		c0.51-0.03,0.568,0.721,0.061,0.781c0,0-0.514,0.061-1.086,0.09l3.453,10.271l2.078-6.226L9.543,6.68
		C9.032,6.651,8.548,6.59,8.548,6.59C8.037,6.559,8.098,5.778,8.61,5.809c0,0,1.563,0.121,2.5,0.121
		c0.995,0,2.528-0.121,2.528-0.121c0.513-0.03,0.571,0.721,0.062,0.781c0,0-0.517,0.061-1.086,0.09l3.426,10.192l0.947-3.159
		C17.396,12.4,17.707,11.459,17.707,10.647z"/>
	<path fill="#27A1D6" d="M11.472,11.956l-2.851,8.268c0.852,0.251,1.748,0.384,2.684,0.384c1.104,0,2.166-0.188,3.149-0.537
		c-0.023-0.038-0.048-0.085-0.066-0.131L11.472,11.956z"/>
	<path fill="#27A1D6" d="M19.628,6.577c0.041,0.302,0.063,0.627,0.063,0.975c0,0.962-0.184,2.043-0.72,3.396l-2.898,8.375
		c2.818-1.646,4.715-4.697,4.715-8.197C20.788,9.477,20.368,7.928,19.628,6.577z"/>
	<path fill="#27A1D6" d="M11.305,0.073c-6.099,0-11.058,4.958-11.058,11.053c0,6.096,4.958,11.052,11.058,11.052
		c6.098,0,11.055-4.956,11.055-11.052C22.36,5.031,17.402,0.073,11.305,0.073z M11.305,21.673c-5.819,0-10.551-4.732-10.551-10.546
		c0-5.815,4.73-10.546,10.551-10.546c5.815,0,10.548,4.729,10.548,10.546C21.853,16.94,17.122,21.673,11.305,21.673z"/>
</g>
</svg>
