<?xml version="1.0" encoding="utf-8"?>
<!-- Generator: Adobe Illustrator 16.2.0, SVG Export Plug-In . SVG Version: 6.00 Build 0)  -->
<!DOCTYPE svg PUBLIC "-//W3C//DTD SVG 1.1//EN" "http://www.w3.org/Graphics/SVG/1.1/DTD/svg11.dtd">
<svg version="1.1" id="Layer_1" xmlns="http://www.w3.org/2000/svg" xmlns:xlink="http://www.w3.org/1999/xlink" x="0px" y="0px"
	 width="100px" height="100px" viewBox="0 0 100 100" enable-background="new 0 0 100 100" xml:space="preserve">
<circle fill="#FFFEFE" cx="49.917" cy="50.083" r="49.917"/>
<path fill="#1EE6BC" d="M50.065,50.734l38.753-22.373C81.198,14.742,66.634,5.533,49.917,5.533
	c-16.664,0-31.188,9.152-38.829,22.699L50.065,50.734z"/>
<path fill="#1ADBB3" d="M49.918,94.635c0.148,0,0.294-0.003,0.442-0.005l-0.045-44.455l-0.25-0.02l-38.73-22.359
	c-3.794,6.558-5.968,14.169-5.968,22.289C5.367,74.688,25.313,94.635,49.918,94.635z"/>
<path fill="#2ACFAB" d="M50.065,94.633c24.537-0.079,44.403-19.991,44.403-44.548c0-8.067-2.144-15.635-5.894-22.16L50.065,50.156
	V94.633z"/>
<g>
	<g>
		<path fill="#FFFEFE" d="M49.903,30.767c-4.036,0-7.861,1.214-11.084,3.475V1.983c-2.901,0.778-5.681,1.852-8.303,3.191v44.977
			c0,10.689,8.696,19.386,19.387,19.386c10.69,0,19.387-8.697,19.387-19.386S60.594,30.767,49.903,30.767z M49.903,61.232
			c-6.113,0-11.084-4.973-11.084-11.083s4.971-11.082,11.084-11.082c6.111,0,11.083,4.971,11.083,11.082
			S56.016,61.232,49.903,61.232z"/>
	</g>
</g>
</svg>
