<?xml version="1.0" encoding="utf-8"?>
<!-- Generator: Adobe Illustrator 16.2.0, SVG Export Plug-In . SVG Version: 6.00 Build 0)  -->
<!DOCTYPE svg PUBLIC "-//W3C//DTD SVG 1.1//EN" "http://www.w3.org/Graphics/SVG/1.1/DTD/svg11.dtd">
<svg version="1.1" id="Layer_1" xmlns="http://www.w3.org/2000/svg" xmlns:xlink="http://www.w3.org/1999/xlink" x="0px" y="0px"
	 width="100px" height="100px" viewBox="0 0 100 100" enable-background="new 0 0 100 100" xml:space="preserve">
<circle fill="#FFFEFE" cx="49.917" cy="50.083" r="49.917"/>
<g>
	<path fill="#2ACFAB" d="M49.77,49.433L11.016,71.807c7.621,13.619,22.185,22.828,38.902,22.828
		c16.664,0,31.188-9.152,38.829-22.699L49.77,49.433z"/>
	<path fill="#1ADBB3" d="M49.917,5.533c-0.148,0-0.294,0.003-0.442,0.005l0.045,44.455l0.25,0.02L88.5,72.372
		c3.794-6.558,5.968-14.169,5.968-22.289C94.468,25.479,74.521,5.533,49.917,5.533z"/>
	<path fill="#1EE6BC" d="M49.77,5.535C25.233,5.614,5.367,25.527,5.367,50.083c0,8.067,2.144,15.635,5.894,22.16L49.77,50.012V5.535
		z"/>
</g>
<g>
	<g>
		<path fill="#FFFEFE" d="M49.903,30.767c-4.036,0-7.861,1.214-11.084,3.475V1.983c-2.901,0.778-5.681,1.852-8.303,3.191v44.977
			c0,10.689,8.696,19.386,19.387,19.386c10.69,0,19.387-8.697,19.387-19.386S60.594,30.767,49.903,30.767z M49.903,61.232
			c-6.113,0-11.084-4.973-11.084-11.083s4.971-11.082,11.084-11.082c6.111,0,11.083,4.971,11.083,11.082
			S56.016,61.232,49.903,61.232z"/>
	</g>
</g>
</svg>
