<?xml version="1.0" encoding="utf-8"?>
<!-- Generator: Adobe Illustrator 16.2.0, SVG Export Plug-In . SVG Version: 6.00 Build 0)  -->
<!DOCTYPE svg PUBLIC "-//W3C//DTD SVG 1.1//EN" "http://www.w3.org/Graphics/SVG/1.1/DTD/svg11.dtd">
<svg version="1.1" id="Large_x5F_arrow" xmlns="http://www.w3.org/2000/svg" xmlns:xlink="http://www.w3.org/1999/xlink" x="0px"
	 y="0px" width="32px" height="11.389px" viewBox="0 -0.153 32 11.389" enable-background="new 0 -0.153 32 11.389"
	 xml:space="preserve">
<path fill="#231F20" d="M26.184,7.295l-1.572,0.732L16.45,5.051l9.844-3.604l-0.164,1.17l3.746-2.646l-4.562,0.396l0.877,0.79
	L16,4.888L5.812,1.157l0.876-0.79L2.126-0.028l3.747,2.646l-0.164-1.17l9.844,3.604L7.39,8.027L5.817,7.295L2.125,8.64l1.382,0.967
	l-0.436,1.629L6.763,9.89l0.733-1.574L16,5.216l8.505,3.1l0.731,1.57l3.693,1.348l-0.438-1.629l1.382-0.969L26.184,7.295z
	 M26.641,1.153l2.112-0.774h0.015l-2.233,1.579l0.11-0.802L26.641,1.153z M3.233,0.377h0.013l2.113,0.774L5.356,1.156l0.113,0.802
	L3.233,0.377z M3.858,9.476L2.784,8.722l3.019-1.102L7.18,8.265L3.858,9.476z M28.143,9.476L24.82,8.265l1.378-0.645l3.019,1.102
	L28.143,9.476z"/>
</svg>
