<?xml version="1.0" encoding="utf-8"?>
<!-- Generator: Adobe Illustrator 16.2.0, SVG Export Plug-In . SVG Version: 6.00 Build 0)  -->
<!DOCTYPE svg PUBLIC "-//W3C//DTD SVG 1.1//EN" "http://www.w3.org/Graphics/SVG/1.1/DTD/svg11.dtd">
<svg version="1.1" id="Layer_1" xmlns="http://www.w3.org/2000/svg" xmlns:xlink="http://www.w3.org/1999/xlink" x="0px" y="0px"
	 width="32px" height="32px" viewBox="0 0 32 32" enable-background="new 0 0 32 32" xml:space="preserve">
<g>
	<g>
		<path fill="#FFFEFE" d="M16.15,1.062C7.9,1.062,1.212,7.75,1.212,16S7.9,30.938,16.15,30.938c8.25,0,14.938-6.688,14.938-14.938
			S24.4,1.062,16.15,1.062z M16.15,29.413C8.754,29.413,2.737,23.396,2.737,16c0-5.314,3.115-9.902,7.607-12.072v12.092
			c0,3.198,2.602,5.8,5.802,5.8s5.801-2.602,5.801-5.8c0-3.199-2.602-5.801-5.801-5.801c-1.208,0-2.352,0.364-3.317,1.04V3.021
			c1.064-0.273,2.173-0.434,3.321-0.434c7.397,0,13.413,6.017,13.413,13.413C29.562,23.396,23.547,29.413,16.15,29.413z
			 M12.829,16.021c0-1.829,1.488-3.316,3.317-3.316c1.829,0,3.316,1.488,3.316,3.316c0,1.828-1.487,3.315-3.316,3.315
			C14.317,19.336,12.829,17.849,12.829,16.021z"/>
	</g>
</g>
</svg>
