<?xml version="1.0" encoding="utf-8"?>
<!-- Generator: Adobe Illustrator 16.2.0, SVG Export Plug-In . SVG Version: 6.00 Build 0)  -->
<!DOCTYPE svg PUBLIC "-//W3C//DTD SVG 1.1//EN" "http://www.w3.org/Graphics/SVG/1.1/DTD/svg11.dtd">
<svg version="1.1" id="Large_x5F_arrow" xmlns="http://www.w3.org/2000/svg" xmlns:xlink="http://www.w3.org/1999/xlink" x="0px"
	 y="0px" width="32px" height="32px" viewBox="0 0 32 32" enable-background="new 0 0 32 32" xml:space="preserve">
<polygon fill="#231F20" points="10.968,19.975 9.066,16.403 17.859,16.403 20.186,20.066 21.076,19.502 19.108,16.403 
	20.623,16.403 22.953,20.066 23.844,19.502 21.873,16.403 23.395,16.403 25.72,20.066 26.61,19.502 24.644,16.403 26.158,16.403 
	28.487,20.066 29.377,19.502 27.229,16.125 27.229,15.625 29.377,12.248 28.487,11.683 26.158,15.347 24.644,15.347 26.61,12.248 
	25.72,11.683 23.395,15.347 21.873,15.347 23.844,12.248 22.953,11.683 20.623,15.347 19.108,15.347 21.076,12.248 20.186,11.683 
	17.859,15.347 9.062,15.347 10.968,11.775 2.518,15.867 "/>
</svg>
