<?xml version="1.0" encoding="utf-8"?>
<!-- Generator: Adobe Illustrator 16.2.0, SVG Export Plug-In . SVG Version: 6.00 Build 0)  -->
<!DOCTYPE svg PUBLIC "-//W3C//DTD SVG 1.1//EN" "http://www.w3.org/Graphics/SVG/1.1/DTD/svg11.dtd">
<svg version="1.1" id="Large_x5F_arrow" xmlns="http://www.w3.org/2000/svg" xmlns:xlink="http://www.w3.org/1999/xlink" x="0px"
	 y="0px" width="32px" height="32px" viewBox="0 0 32 32" enable-background="new 0 0 32 32" xml:space="preserve">
<polygon fill="#231F20" points="29.377,15.867 20.927,11.775 22.832,15.347 14.035,15.347 11.709,11.683 10.818,12.248 
	12.786,15.347 11.272,15.347 8.942,11.683 8.051,12.248 10.022,15.347 8.5,15.347 6.175,11.683 5.284,12.248 7.251,15.347 
	5.737,15.347 3.407,11.683 2.517,12.248 4.665,15.625 4.665,16.125 2.517,19.502 3.407,20.066 5.737,16.403 7.251,16.403 
	5.284,19.502 6.175,20.066 8.5,16.403 10.022,16.403 8.051,19.502 8.942,20.066 11.272,16.403 12.786,16.403 10.818,19.502 
	11.709,20.066 14.035,16.403 22.828,16.403 20.927,19.975 "/>
</svg>
